# xmcd
#
# Track frame offsets:
#	150
#	11536
#	25546
#	35100
#	46269
#	57222
#	72100
#	86155
#	99987
#	113170
#	130221
#
# Disc length: 1914 seconds
#
# Revision: 0
# Processed by: cddbd v1.5.1PL2 Copyright (c) Steve Scherf et al.
# Submitted via: dBpowerAMP V4.0
#
DISCID=8707780b
DTITLE=Mojave River - Hard Work Having Fun
DYEAR=1900
DGENRE=Country
TTITLE0=Definite Maybe
TTITLE1=Loving Me More
TTITLE2=I'd Rather Be Judged
TTITLE3=Should Of Said I Love You
TTITLE4=You Call That Love
TTITLE5=I Can't Walk Away (I'd Have To Crawl)
TTITLE6=Deep Heating Penetrating Pain Relief
TTITLE7=Hard Work Having Fun
TTITLE8=Salt And Water
TTITLE9=Dancing on Daddy's Feet
TTITLE10=Rice Pudding
EXTD=
EXTT0=
EXTT1=
EXTT2=
EXTT3=
EXTT4=
EXTT5=
EXTT6=
EXTT7=
EXTT8=
EXTT9=
EXTT10=
PLAYORDER=
